<svg id="visual" viewBox="0 0 540 960" width="540" height="960" xmlns="http://www.w3.org/2000/svg" xmlns:xlink="http://www.w3.org/1999/xlink" version="1.1"><g><g transform="translate(62 691)"><path d="M0 -12.8L5.6 -11.6L10 -8L12.5 -2.9L12.5 2.9L10 8L5.6 11.6L0 12.8L-5.6 11.6L-10 8L-12.5 2.9L-12.5 -2.9L-10 -8L-5.6 -11.6Z" stroke="#141c5b" fill="none" stroke-width="2"></path></g><g transform="translate(402 567)"><path d="M0 -8L3.5 -7.2L6.3 -5L7.8 -1.8L7.8 1.8L6.3 5L3.5 7.2L0 8L-3.5 7.2L-6.3 5L-7.8 1.8L-7.8 -1.8L-6.3 -5L-3.5 -7.2Z" stroke="#141c5b" fill="none" stroke-width="2"></path></g><g transform="translate(400 340)"><path d="M0 -10L4.3 -9L7.8 -6.2L9.7 -2.2L9.7 2.2L7.8 6.2L4.3 9L0 10L-4.3 9L-7.8 6.2L-9.7 2.2L-9.7 -2.2L-7.8 -6.2L-4.3 -9Z" stroke="#141c5b" fill="none" stroke-width="2"></path></g><g transform="translate(61 728)"><path d="M0 -9L3.9 -8.1L7 -5.6L8.8 -2L8.8 2L7 5.6L3.9 8.1L0 9L-3.9 8.1L-7 5.6L-8.8 2L-8.8 -2L-7 -5.6L-3.9 -8.1Z" stroke="#141c5b" fill="none" stroke-width="2"></path></g><g transform="translate(454 848)"><path d="M0 -3L1.3 -2.7L2.3 -1.9L2.9 -0.7L2.9 0.7L2.3 1.9L1.3 2.7L0 3L-1.3 2.7L-2.3 1.9L-2.9 0.7L-2.9 -0.7L-2.3 -1.9L-1.3 -2.7Z" stroke="#141c5b" fill="none" stroke-width="2"></path></g><g transform="translate(448 954)"><path d="M0 -3L1.3 -2.7L2.3 -1.9L2.9 -0.7L2.9 0.7L2.3 1.9L1.3 2.7L0 3L-1.3 2.7L-2.3 1.9L-2.9 0.7L-2.9 -0.7L-2.3 -1.9L-1.3 -2.7Z" stroke="#141c5b" fill="none" stroke-width="2"></path></g><g transform="translate(519 659)"><path d="M0 -7L3 -6.3L5.5 -4.4L6.8 -1.6L6.8 1.6L5.5 4.4L3 6.3L0 7L-3 6.3L-5.5 4.4L-6.8 1.6L-6.8 -1.6L-5.5 -4.4L-3 -6.3Z" stroke="#141c5b" fill="none" stroke-width="2"></path></g><g transform="translate(264 127)"><path d="M0 -2L0.9 -1.8L1.6 -1.2L1.9 -0.4L1.9 0.4L1.6 1.2L0.9 1.8L0 2L-0.9 1.8L-1.6 1.2L-1.9 0.4L-1.9 -0.4L-1.6 -1.2L-0.9 -1.8Z" stroke="#141c5b" fill="none" stroke-width="2"></path></g><g transform="translate(21 466)"><path d="M0 -1L0.4 -0.9L0.8 -0.6L1 -0.2L1 0.2L0.8 0.6L0.4 0.9L0 1L-0.4 0.9L-0.8 0.6L-1 0.2L-1 -0.2L-0.8 -0.6L-0.4 -0.9Z" stroke="#141c5b" fill="none" stroke-width="2"></path></g><g transform="translate(463 877)"><path d="M0 -9L3.9 -8.1L7 -5.6L8.8 -2L8.8 2L7 5.6L3.9 8.1L0 9L-3.9 8.1L-7 5.6L-8.8 2L-8.8 -2L-7 -5.6L-3.9 -8.1Z" stroke="#141c5b" fill="none" stroke-width="2"></path></g><g transform="translate(467 306)"><path d="M0 -8L3.5 -7.2L6.3 -5L7.8 -1.8L7.8 1.8L6.3 5L3.5 7.2L0 8L-3.5 7.2L-6.3 5L-7.8 1.8L-7.8 -1.8L-6.3 -5L-3.5 -7.2Z" stroke="#141c5b" fill="none" stroke-width="2"></path></g><g transform="translate(12 250)"><path d="M0 -4L1.7 -3.6L3.1 -2.5L3.9 -0.9L3.9 0.9L3.1 2.5L1.7 3.6L0 4L-1.7 3.6L-3.1 2.5L-3.9 0.9L-3.9 -0.9L-3.1 -2.5L-1.7 -3.6Z" stroke="#141c5b" fill="none" stroke-width="2"></path></g><g transform="translate(33 722)"><path d="M0 -11L4.8 -9.9L8.6 -6.9L10.7 -2.4L10.7 2.4L8.6 6.9L4.8 9.9L0 11L-4.8 9.9L-8.6 6.9L-10.7 2.4L-10.7 -2.4L-8.6 -6.9L-4.8 -9.9Z" stroke="#141c5b" fill="none" stroke-width="2"></path></g><g transform="translate(176 771)"><path d="M0 -5L2.2 -4.5L3.9 -3.1L4.9 -1.1L4.9 1.1L3.9 3.1L2.2 4.5L0 5L-2.2 4.5L-3.9 3.1L-4.9 1.1L-4.9 -1.1L-3.9 -3.1L-2.2 -4.5Z" stroke="#141c5b" fill="none" stroke-width="2"></path></g><g transform="translate(507 864)"><path d="M0 -3L1.3 -2.7L2.3 -1.9L2.9 -0.7L2.9 0.7L2.3 1.9L1.3 2.7L0 3L-1.3 2.7L-2.3 1.9L-2.9 0.7L-2.9 -0.7L-2.3 -1.9L-1.3 -2.7Z" stroke="#141c5b" fill="none" stroke-width="2"></path></g><g transform="translate(99 840)"><path d="M0 -1L0.4 -0.9L0.8 -0.6L1 -0.2L1 0.2L0.8 0.6L0.4 0.9L0 1L-0.4 0.9L-0.8 0.6L-1 0.2L-1 -0.2L-0.8 -0.6L-0.4 -0.9Z" stroke="#141c5b" fill="none" stroke-width="2"></path></g><g transform="translate(412 698)"><path d="M0 -9L3.9 -8.1L7 -5.6L8.8 -2L8.8 2L7 5.6L3.9 8.1L0 9L-3.9 8.1L-7 5.6L-8.8 2L-8.8 -2L-7 -5.6L-3.9 -8.1Z" stroke="#141c5b" fill="none" stroke-width="2"></path></g><g transform="translate(240 77)"><path d="M0 -7L3 -6.3L5.5 -4.4L6.8 -1.6L6.8 1.6L5.5 4.4L3 6.3L0 7L-3 6.3L-5.5 4.4L-6.8 1.6L-6.8 -1.6L-5.5 -4.4L-3 -6.3Z" stroke="#141c5b" fill="none" stroke-width="2"></path></g><g transform="translate(69 482)"><path d="M0 -11L4.8 -9.9L8.6 -6.9L10.7 -2.4L10.7 2.4L8.6 6.9L4.8 9.9L0 11L-4.8 9.9L-8.6 6.9L-10.7 2.4L-10.7 -2.4L-8.6 -6.9L-4.8 -9.9Z" stroke="#141c5b" fill="none" stroke-width="2"></path></g><g transform="translate(118 689)"><path d="M0 -7L3 -6.3L5.5 -4.4L6.8 -1.6L6.8 1.6L5.5 4.4L3 6.3L0 7L-3 6.3L-5.5 4.4L-6.8 1.6L-6.8 -1.6L-5.5 -4.4L-3 -6.3Z" stroke="#141c5b" fill="none" stroke-width="2"></path></g><g transform="translate(122 320)"><path d="M0 -6L2.6 -5.4L4.7 -3.7L5.8 -1.3L5.8 1.3L4.7 3.7L2.6 5.4L0 6L-2.6 5.4L-4.7 3.7L-5.8 1.3L-5.8 -1.3L-4.7 -3.7L-2.6 -5.4Z" stroke="#141c5b" fill="none" stroke-width="2"></path></g><g transform="translate(536 714)"><path d="M0 -7L3 -6.3L5.5 -4.4L6.8 -1.6L6.8 1.6L5.5 4.4L3 6.3L0 7L-3 6.3L-5.5 4.4L-6.8 1.6L-6.8 -1.6L-5.5 -4.4L-3 -6.3Z" stroke="#141c5b" fill="none" stroke-width="2"></path></g><g transform="translate(77 149)"><path d="M0 -7L3 -6.3L5.5 -4.4L6.8 -1.6L6.8 1.6L5.5 4.4L3 6.3L0 7L-3 6.3L-5.5 4.4L-6.8 1.6L-6.8 -1.6L-5.5 -4.4L-3 -6.3Z" stroke="#141c5b" fill="none" stroke-width="2"></path></g><g transform="translate(478 713)"><path d="M0 -1L0.4 -0.9L0.8 -0.6L1 -0.2L1 0.2L0.8 0.6L0.4 0.9L0 1L-0.4 0.9L-0.8 0.6L-1 0.2L-1 -0.2L-0.8 -0.6L-0.4 -0.9Z" stroke="#141c5b" fill="none" stroke-width="2"></path></g><g transform="translate(506 905)"><path d="M0 -11L4.8 -9.9L8.6 -6.9L10.7 -2.4L10.7 2.4L8.6 6.9L4.8 9.9L0 11L-4.8 9.9L-8.6 6.9L-10.7 2.4L-10.7 -2.4L-8.6 -6.9L-4.8 -9.9Z" stroke="#141c5b" fill="none" stroke-width="2"></path></g><g transform="translate(252 890)"><path d="M0 -5L2.2 -4.5L3.9 -3.1L4.9 -1.1L4.9 1.1L3.9 3.1L2.2 4.5L0 5L-2.2 4.5L-3.9 3.1L-4.9 1.1L-4.9 -1.1L-3.9 -3.1L-2.2 -4.5Z" stroke="#141c5b" fill="none" stroke-width="2"></path></g><g transform="translate(451 803)"><path d="M0 -10L4.3 -9L7.8 -6.2L9.7 -2.2L9.7 2.2L7.8 6.2L4.3 9L0 10L-4.3 9L-7.8 6.2L-9.7 2.2L-9.7 -2.2L-7.8 -6.2L-4.3 -9Z" stroke="#141c5b" fill="none" stroke-width="2"></path></g></g></svg>